<?xml version="1.0" encoding="utf-8"?>
<!-- Generator: Adobe Illustrator 22.0.1, SVG Export Plug-In . SVG Version: 6.00 Build 0)  -->
<svg version="1.1" id="Capa_1" xmlns="http://www.w3.org/2000/svg" xmlns:xlink="http://www.w3.org/1999/xlink" x="0px" y="0px"
	 viewBox="0 0 459 39.7" style="enable-background:new 0 0 459 39.7;" xml:space="preserve">
<style type="text/css">
	.st0{display:none;}
	.st1{display:inline;fill:#1E4187;}
	.st2{display:inline;fill:#F7931E;}
	.st3{display:inline;fill:#003451;}
	.st4{display:inline;fill:#29ABE2;}
	.st5{fill:#003451;}
	.st6{fill:#29ABE2;}
	.st7{fill:#286699;}
	.st8{fill:#204B72;}
	.st9{fill:#999999;}
</style>
<text transform="matrix(1 0 0 1 216.2712 -134.1626)" style="display:none;fill:#1E4187; font-family:'Arial-BoldItalicMT'; font-size:196.1808px;">Now!</text>
<text transform="matrix(1 0 0 1 -299.7288 -134.1626)" style="display:none;fill:#F7931E; font-family:'Arial-ItalicMT'; font-size:196.1808px;">Token</text>
<text transform="matrix(1 0 0 1 -368.6888 -113.6197)" class="st0"><tspan x="0" y="0" class="st3" style="font-family:'KabrioAlternate-ExtraBoldItalic'; font-size:200px; letter-spacing:-5;">Token</tspan><tspan x="571.1" y="0" class="st4" style="font-family:'KabrioAlternate-ExtraBoldItalic'; font-size:200px; letter-spacing:-5;">Now!</tspan></text>
<g>
	<g>
		<path class="st5" d="M208.4,9.4c-0.8,0-1.2-0.1-1.5-0.4c-0.2-0.3-0.3-0.8-0.1-1.5l0.7-4.1c0.1-0.8,0.4-1.3,0.7-1.5
			c0.3-0.3,0.8-0.4,1.6-0.4H234c0.4,0,0.7,0,0.9,0.1c0.2,0.1,0.4,0.2,0.5,0.3c0.1,0.1,0.2,0.3,0.2,0.6c0,0.3,0,0.6-0.1,0.9l-0.7,4.1
			c-0.1,0.4-0.2,0.7-0.3,0.9c-0.1,0.2-0.2,0.4-0.4,0.6c-0.2,0.1-0.4,0.2-0.6,0.3c-0.3,0.1-0.6,0.1-1,0.1h-7.2l-4.4,25.3
			c-0.1,0.4-0.2,0.7-0.3,0.9c-0.1,0.2-0.2,0.4-0.4,0.6c-0.2,0.1-0.4,0.2-0.7,0.3c-0.3,0.1-0.6,0.1-1,0.1h-5.9c-0.4,0-0.7,0-0.9-0.1
			c-0.2-0.1-0.4-0.2-0.5-0.3c-0.1-0.1-0.2-0.3-0.2-0.6c0-0.2,0-0.6,0.1-0.9l4.4-25.3H208.4z"/>
		<path class="st5" d="M229.3,26.2c0-2.4,0.4-4.6,1.2-6.6c0.8-2,1.9-3.7,3.3-5.2c1.4-1.4,3.2-2.6,5.2-3.4c2-0.8,4.3-1.2,6.8-1.2
			c1.8,0,3.4,0.2,4.9,0.7c1.4,0.5,2.7,1.2,3.7,2.2c1,0.9,1.8,2.1,2.3,3.5c0.5,1.4,0.8,2.9,0.8,4.7c0,2.5-0.4,4.7-1.2,6.7
			c-0.8,2-1.9,3.7-3.4,5.1c-1.4,1.4-3.2,2.5-5.2,3.3c-2,0.8-4.3,1.1-6.7,1.1c-1.9,0-3.5-0.2-5-0.7c-1.4-0.5-2.7-1.2-3.7-2.1
			c-1-0.9-1.8-2.1-2.3-3.4C229.6,29.5,229.3,27.9,229.3,26.2z M238.5,25.3c0,0.8,0.1,1.5,0.3,2.1c0.2,0.6,0.4,1,0.8,1.4
			c0.3,0.4,0.7,0.6,1.2,0.8c0.5,0.2,1,0.2,1.6,0.2c0.9,0,1.7-0.2,2.4-0.5c0.7-0.3,1.3-0.8,1.9-1.4c0.5-0.7,0.9-1.5,1.2-2.5
			c0.3-1,0.4-2.2,0.4-3.6c0-0.8-0.1-1.5-0.3-2c-0.2-0.6-0.4-1-0.8-1.4c-0.3-0.4-0.7-0.6-1.2-0.8c-0.5-0.2-1-0.3-1.5-0.3
			c-0.9,0-1.6,0.2-2.4,0.5c-0.7,0.3-1.4,0.8-1.9,1.5c-0.5,0.7-0.9,1.5-1.2,2.5C238.7,22.7,238.5,23.9,238.5,25.3z"/>
		<path class="st5" d="M260.2,36.5c-0.7,0-1.2-0.1-1.4-0.4c-0.2-0.2-0.2-0.7-0.1-1.4l5.8-33c0.1-0.4,0.1-0.6,0.2-0.9
			c0.1-0.2,0.2-0.4,0.4-0.5s0.3-0.2,0.6-0.3C266,0,266.3,0,266.7,0h5.8c0.4,0,0.6,0,0.9,0.1c0.2,0.1,0.4,0.1,0.5,0.3
			c0.1,0.1,0.2,0.3,0.2,0.5c0,0.2,0,0.5-0.1,0.9l-3.1,17.8c0.4-0.2,0.9-0.4,1.3-0.6c0.4-0.2,0.8-0.5,1.2-0.8c0.4-0.3,0.8-0.6,1.2-1
			c0.4-0.4,0.9-0.8,1.4-1.3c0.8-0.8,1.4-1.6,1.9-2.2c0.4-0.6,0.8-1.2,1-1.7c0.2-0.3,0.3-0.6,0.4-0.8c0.1-0.2,0.3-0.3,0.5-0.4
			c0.2-0.1,0.4-0.1,0.6-0.2c0.2,0,0.5,0,0.9,0h6.7c0.7,0,1.1,0.1,1.3,0.3c0.1,0.2,0,0.7-0.4,1.3c-0.7,1-1.3,1.9-1.9,2.8
			c-0.6,0.9-1.3,1.7-2,2.5c-0.7,0.8-1.5,1.6-2.3,2.3c-0.8,0.7-1.8,1.5-2.8,2.2c0.6,0.7,1.3,1.5,1.9,2.4c0.7,0.9,1.3,2.1,2,3.5
			c0.7,1.5,1.2,2.9,1.5,4c0.3,1.1,0.5,2,0.6,2.7c0.1,0.6,0.1,1.1-0.1,1.3c-0.2,0.3-0.6,0.4-1.4,0.4h-7.3c-0.7,0-1.2-0.1-1.4-0.3
			c-0.3-0.2-0.4-0.6-0.5-1.1c0-0.3-0.1-0.8-0.3-1.4c-0.2-0.7-0.4-1.5-0.8-2.6c-0.4-1-0.8-1.9-1.1-2.6c-0.4-0.7-0.7-1.3-1-1.7
			c-0.8,0.4-1.6,0.7-2.3,0.9l-1.3,7.1c-0.1,0.4-0.1,0.6-0.2,0.9c-0.1,0.2-0.2,0.4-0.4,0.5c-0.2,0.1-0.3,0.2-0.6,0.3
			c-0.2,0.1-0.5,0.1-0.9,0.1H260.2z"/>
		<path class="st5" d="M299,27.1c0.3,1,0.9,1.7,1.8,2.2c0.9,0.5,2.2,0.7,3.9,0.7c0.6,0,1.1-0.1,1.7-0.2c0.5-0.1,1-0.2,1.5-0.4
			c0.5-0.1,0.9-0.3,1.2-0.4c0.4-0.1,0.7-0.3,0.9-0.4c0.6-0.3,1.1-0.3,1.4-0.1c0.4,0.2,0.6,0.5,0.7,1.1l0.6,2.9
			c0.1,0.3,0.1,0.6,0.1,0.8c0,0.2,0,0.4-0.1,0.6c-0.1,0.2-0.2,0.4-0.4,0.5c-0.2,0.2-0.5,0.3-0.8,0.5c-0.4,0.2-1,0.4-1.6,0.7
			c-0.7,0.2-1.4,0.5-2.2,0.7c-0.8,0.2-1.7,0.4-2.7,0.5c-1,0.1-1.9,0.2-2.9,0.2c-3.9,0-6.9-0.9-9-2.6c-2.1-1.8-3.2-4.4-3.2-8
			c0-2.7,0.4-5.2,1.3-7.2c0.8-2.1,2-3.8,3.5-5.2c1.5-1.4,3.3-2.4,5.3-3.1c2-0.7,4.2-1,6.6-1c1.7,0,3.1,0.2,4.4,0.7
			c1.3,0.4,2.3,1,3.2,1.8c0.8,0.7,1.5,1.6,1.9,2.6c0.4,1,0.6,1.9,0.6,3c0,0.6-0.1,1.2-0.2,1.9c-0.1,0.7-0.3,1.4-0.7,2
			c-0.3,0.7-0.8,1.4-1.3,2c-0.5,0.6-1.2,1.2-2.1,1.7c-0.8,0.5-1.9,0.9-3.1,1.2c-1.2,0.3-2.6,0.4-4.2,0.4H299z M304.6,17.3
			c-0.6,0-1.2,0.1-1.6,0.3c-0.5,0.2-0.9,0.5-1.3,0.8c-0.4,0.4-0.7,0.8-1,1.2c-0.3,0.5-0.6,0.9-0.8,1.4h4.8c0.8,0,1.4-0.2,1.9-0.5
			c0.5-0.3,0.7-0.8,0.7-1.5c0-0.3-0.1-0.6-0.2-0.8c-0.1-0.2-0.3-0.4-0.6-0.6c-0.2-0.1-0.5-0.2-0.8-0.3
			C305.3,17.3,304.9,17.3,304.6,17.3z"/>
		<path class="st5" d="M320.4,16.3c0.1-0.8,0.4-1.4,0.7-1.8c0.3-0.4,0.8-0.8,1.5-1.1c0.5-0.3,1.3-0.6,2.2-1c0.9-0.4,2-0.8,3.3-1.1
			c1.2-0.4,2.6-0.7,4-1c1.4-0.3,2.9-0.4,4.5-0.4c2,0,3.7,0.3,5,0.8c1.3,0.5,2.3,1.3,3,2.2c0.7,0.9,1.1,2,1.3,3.2
			c0.2,1.2,0.1,2.5-0.1,3.8l-2.6,14.8c-0.1,0.4-0.2,0.7-0.3,0.9c-0.1,0.2-0.2,0.4-0.4,0.6c-0.2,0.1-0.4,0.2-0.6,0.3
			c-0.3,0.1-0.6,0.1-0.9,0.1h-5.7c-0.7,0-1.2-0.1-1.4-0.4c-0.2-0.3-0.2-0.8-0.1-1.5l2.4-13.9c0.1-0.4,0.1-0.7,0.1-1.1
			c0-0.4-0.1-0.7-0.3-1.1c-0.2-0.3-0.4-0.6-0.7-0.8c-0.3-0.2-0.7-0.3-1.2-0.3c-0.4,0-0.9,0-1.3,0.1c-0.5,0.1-0.9,0.2-1.3,0.3
			c-0.4,0.1-0.8,0.3-1.2,0.4c-0.4,0.2-0.7,0.3-1,0.4l-2.8,15.9c-0.1,0.4-0.2,0.7-0.3,0.9c-0.1,0.2-0.2,0.4-0.4,0.6
			c-0.2,0.1-0.4,0.2-0.6,0.3c-0.3,0.1-0.6,0.1-0.9,0.1h-5.7c-0.7,0-1.2-0.1-1.4-0.4c-0.2-0.3-0.2-0.8-0.1-1.5L320.4,16.3z"/>
		<path class="st6" d="M349.9,36.5c-0.7,0-1.1-0.1-1.3-0.4c-0.2-0.3-0.2-0.8-0.1-1.5l5.5-31.3c0.1-0.8,0.4-1.3,0.7-1.5
			c0.3-0.3,0.8-0.4,1.6-0.4h6.4c0.4,0,0.7,0,1,0c0.3,0,0.5,0.1,0.7,0.2c0.2,0.1,0.4,0.2,0.6,0.4c0.2,0.2,0.4,0.4,0.6,0.7
			c0.4,0.6,0.8,1.3,1.2,2.2c0.4,0.9,0.8,1.9,1.3,3c0.4,1.1,0.9,2.2,1.4,3.4s1,2.4,1.5,3.6c0.5,1.2,1,2.3,1.6,3.4
			c0.5,1.1,1.1,2,1.7,2.8h0.3l2.9-17.9c0.1-0.4,0.2-0.7,0.3-0.9c0.1-0.3,0.2-0.4,0.4-0.6c0.2-0.1,0.4-0.2,0.6-0.3
			c0.3-0.1,0.6-0.1,0.9-0.1h6.1c0.7,0,1.2,0.1,1.4,0.4c0.2,0.3,0.2,0.8,0.1,1.5l-5.5,31.3c-0.1,0.4-0.1,0.7-0.2,0.9
			c-0.1,0.2-0.2,0.4-0.4,0.6c-0.2,0.1-0.4,0.2-0.6,0.3c-0.3,0.1-0.6,0.1-0.9,0.1h-6.4c-0.4,0-0.7,0-0.9-0.1c-0.3,0-0.5-0.1-0.7-0.2
			s-0.4-0.2-0.6-0.4c-0.2-0.2-0.4-0.4-0.6-0.7c-0.5-0.7-0.9-1.5-1.4-2.4c-0.5-0.9-0.9-1.9-1.4-3c-0.5-1.1-1-2.1-1.5-3.3
			c-0.5-1.1-1-2.2-1.5-3.3c-0.5-1.1-1-2.1-1.5-3.1c-0.5-1-1-1.9-1.5-2.6h-0.2l-2.9,17.1c-0.1,0.4-0.2,0.7-0.3,0.9
			c-0.1,0.2-0.2,0.4-0.4,0.6c-0.2,0.1-0.4,0.2-0.6,0.3c-0.3,0.1-0.6,0.1-1,0.1H349.9z"/>
		<path class="st6" d="M387.5,26.2c0-2.4,0.4-4.6,1.2-6.6c0.8-2,1.9-3.7,3.3-5.2c1.4-1.4,3.2-2.6,5.2-3.4c2-0.8,4.3-1.2,6.8-1.2
			c1.8,0,3.4,0.2,4.9,0.7c1.4,0.5,2.7,1.2,3.7,2.2c1,0.9,1.8,2.1,2.3,3.5c0.5,1.4,0.8,2.9,0.8,4.7c0,2.5-0.4,4.7-1.2,6.7
			c-0.8,2-1.9,3.7-3.4,5.1c-1.4,1.4-3.2,2.5-5.2,3.3s-4.3,1.1-6.7,1.1c-1.9,0-3.5-0.2-5-0.7c-1.4-0.5-2.7-1.2-3.7-2.1
			c-1-0.9-1.8-2.1-2.3-3.4C387.7,29.5,387.5,27.9,387.5,26.2z M396.7,25.3c0,0.8,0.1,1.5,0.3,2.1c0.2,0.6,0.4,1,0.8,1.4
			c0.3,0.4,0.7,0.6,1.2,0.8c0.5,0.2,1,0.2,1.6,0.2c0.9,0,1.7-0.2,2.4-0.5c0.7-0.3,1.3-0.8,1.9-1.4c0.5-0.7,0.9-1.5,1.2-2.5
			c0.3-1,0.4-2.2,0.4-3.6c0-0.8-0.1-1.5-0.3-2c-0.2-0.6-0.4-1-0.8-1.4c-0.3-0.4-0.7-0.6-1.2-0.8c-0.5-0.2-1-0.3-1.5-0.3
			c-0.9,0-1.6,0.2-2.4,0.5c-0.7,0.3-1.4,0.8-1.9,1.5s-0.9,1.5-1.2,2.5C396.9,22.7,396.7,23.9,396.7,25.3z"/>
		<path class="st7" d="M431.3,33.1c0.6-1.4,1-2.9,1.7-4.3c0.7-1.4,1.6-2.7,2.4-4.1c-0.2-0.3-0.3-0.6-0.3-1c-0.3-2.4-0.6-4.9-0.5-7.3
			c0-0.4,0-0.8,0.1-1.2c-0.2,0.4-0.3,0.9-0.5,1.3c-0.3,0.8-0.7,1.7-1.1,2.7c-0.4,1-0.8,1.9-1.2,2.9c-0.4,1-0.9,2-1.4,2.9
			c-0.5,1-1,1.9-1.5,2.7h-0.4c-0.2-1.3-0.2-2.7-0.3-4.1c0-1.5,0-2.9,0.1-4.3c0.1-1.4,0.2-2.7,0.3-4c0.1-1.2,0.2-2.3,0.3-3.2
			c0.1-0.4,0.1-0.7,0.1-0.9c0-0.2-0.1-0.4-0.2-0.5c-0.1-0.1-0.3-0.2-0.5-0.2c-0.2,0-0.5-0.1-0.9-0.1l-6.3,0.2c-0.4,0-0.7,0.1-1,0.2
			c-0.3,0.1-0.5,0.3-0.7,0.6c-0.2,0.3-0.3,0.7-0.4,1.3c-0.1,0.6-0.1,1.3-0.1,2.3c0,1.6,0.1,3.3,0.2,5.1c0.1,1.8,0.3,3.7,0.5,5.5
			c0.2,1.8,0.4,3.5,0.7,5.1c0.3,1.6,0.5,3,0.8,4.1c0.1,0.4,0.2,0.6,0.3,0.9c0.1,0.2,0.3,0.4,0.4,0.5c0.2,0.1,0.4,0.2,0.7,0.3
			c0.3,0.1,0.6,0.1,1,0.1h6.2C430.1,35.3,430.8,34.3,431.3,33.1z"/>
		<path class="st7" d="M451.7,26.8c0.8-1.8,1.4-3.7,2.4-5.4c0.6-1.1,1.3-2.1,1.9-3.1c-0.2-1.9,0-3.9,0.4-5.8c-0.4,0-0.8,0-1.2,0
			c-1.1,0-2.1,0.1-2.9,0.3c-0.6,0.1-1.1,0-1.5-0.2c-0.1,0.4-0.2,0.8-0.4,1.4c-0.2,0.7-0.4,1.5-0.7,2.4c-0.3,0.9-0.6,1.9-0.9,2.9
			c-0.3,1-0.7,2.1-1,3.1c-0.4,1-0.7,2-1.1,3c-0.4,1-0.8,1.8-1.1,2.6h-0.3c-0.3-1.4-0.5-2.8-0.7-4.2c-0.2-1.5-0.3-2.9-0.4-4.2
			c-0.1-1.4-0.2-2.7-0.2-3.8c0-1.2,0-2.2,0.1-3c0-0.8-0.1-1.3-0.3-1.5c-0.3-0.2-0.7-0.4-1.5-0.4l-5.8,0c-0.1,1.9-0.4,3.8-0.4,5.7
			c-0.1,2.5,0.2,4.9,0.5,7.3c0,0.1,0,0.1,0,0.2h0c0,1.1,0,2.2,0.1,3.2c0.1,1,0.2,2,0.3,3c0.1,0.9,0.3,1.8,0.4,2.6
			c0.2,0.8,0.3,1.5,0.5,2.1c0.1,0.4,0.2,0.6,0.3,0.9c0.1,0.2,0.2,0.4,0.4,0.5c0.2,0.1,0.4,0.2,0.6,0.3c0.3,0,0.6,0.1,1,0.1h5.2
			C447.3,33.2,450.1,30.5,451.7,26.8z"/>
		<path class="st8" d="M443.1,10.7c0,0-1.5,7.9-2.2,10.6c-0.6,2.2-3.7,9.8-3.7,9.8l-0.8-6.7l3.9-10.8L443.1,10.7z"/>
		<path class="st6" d="M458.8,11c-0.2-0.3-0.6-0.4-1.4-0.4l-6.1-0.2c-0.4,0-0.6,0-0.9,0.1c-0.2,0.1-0.4,0.1-0.6,0.3
			c-0.2,0.1-0.3,0.3-0.4,0.6c-0.1,0.2-0.2,0.6-0.3,0.9c-0.1,0.4-0.2,0.9-0.4,1.6c-0.2,0.7-0.4,1.5-0.7,2.4c-0.3,0.9-0.6,1.9-0.9,2.9
			s-0.7,2.1-1,3.1c-0.4,1-0.7,2-1.1,3s-3.9,8.5-5.7,11.2h6.7c0.4,0,0.7,0,1-0.1c0.3-0.1,0.5-0.2,0.8-0.3c0.2-0.2,0.4-0.3,0.6-0.6
			c0.2-0.2,0.4-0.5,0.6-0.9c1-1.7,1.9-3.4,2.9-5.4c1-1.9,1.9-3.9,2.7-5.8c0.9-2,1.7-3.9,2.4-5.8c0.7-1.9,1.3-3.6,1.8-5.2
			C459,11.8,459,11.3,458.8,11z"/>
		<path class="st6" d="M443.1,10.7c0,0-0.3-0.1-0.4-0.1c-0.1,0-0.4,0-0.4,0h-5.6c-0.4,0-0.7,0-1,0.1c-0.3,0.1-0.5,0.2-0.6,0.3
			c-0.2,0.2-0.3,0.4-0.5,0.6c-0.1,0.3-0.2,0.6-0.4,1c-0.1,0.4-0.3,0.9-0.6,1.6c-0.2,0.7-0.5,1.4-0.8,2.3c-0.3,0.8-0.7,1.7-1.1,2.7
			c-0.4,1-0.8,1.9-1.2,2.9c-0.4,1-2.2,4.6-2.2,4.6c0,0-3.1,6.5-5.4,9.7h6.8c0.4,0,0.7,0,1-0.1c0.3,0,0.5-0.1,0.7-0.3
			c0.2-0.1,0.4-0.3,0.6-0.5c0.2-0.2,0.4-0.5,0.6-0.9c0.3-0.5,3.3-6.4,3.8-7.5c0.5-1.1,2.7-6.1,3.1-7.2
			C439.7,20.1,442.4,13,443.1,10.7z"/>
	</g>
	<g>
		<path class="st9" d="M20.2,20.4c0,1.8-0.3,3.5-0.8,5.1s-1.3,3-2.2,4.1c-0.9,1.1-2,2.1-3.3,2.7c-1.2,0.7-2.6,1-4,1
			c-1,0-1.9-0.1-2.7-0.3c-0.8-0.2-1.6-0.5-2.3-1l-1.8,7.7H0l5.8-25.1h3.1l-0.4,1.9c1-0.7,2-1.3,3-1.7s2.1-0.7,3.3-0.7
			c1.8,0,3.1,0.6,4.1,1.7C19.7,16.8,20.2,18.4,20.2,20.4z M16.9,21c0-1.3-0.3-2.3-0.9-3c-0.6-0.7-1.5-1.1-2.7-1.1
			c-0.9,0-1.8,0.2-2.8,0.7c-1,0.4-1.9,1-2.7,1.5L5.4,29.5c0.7,0.4,1.4,0.7,2,0.9s1.4,0.3,2.3,0.3c1.1,0,2.1-0.3,3-0.8
			c0.9-0.5,1.6-1.3,2.2-2.1c0.6-0.9,1.1-1.9,1.4-3.1S16.9,22.2,16.9,21z"/>
		<path class="st9" d="M40.5,21.1c0,1.6-0.3,3.2-0.8,4.7c-0.5,1.5-1.2,2.8-2.1,3.9c-1,1.2-2,2.1-3.3,2.7s-2.7,1-4.4,1
			c-2.2,0-3.9-0.6-5.1-1.9c-1.2-1.2-1.8-3-1.8-5.1c0-1.6,0.2-3.2,0.7-4.7s1.2-2.8,2.2-4c0.9-1.1,2-2,3.3-2.7s2.8-1,4.3-1
			c2.1,0,3.8,0.6,5,1.8C39.9,17.1,40.5,18.8,40.5,21.1z M35.5,28c0.6-0.9,1-1.9,1.4-3c0.3-1.1,0.5-2.4,0.5-3.6
			c0-1.5-0.4-2.7-1.1-3.5c-0.7-0.8-1.8-1.2-3.1-1.2c-1.1,0-2,0.3-2.9,0.8c-0.8,0.5-1.6,1.2-2.2,2.1c-0.6,0.9-1,1.9-1.4,3
			c-0.3,1.2-0.5,2.4-0.5,3.6c0,1.5,0.4,2.7,1.1,3.5s1.8,1.2,3.1,1.2c1,0,2-0.3,2.9-0.8C34.1,29.6,34.9,28.9,35.5,28z"/>
		<path class="st9" d="M69.9,14.6l-8.5,18.3h-2.9l-1.8-14.2l-7.6,14.2h-2.9l-1.1-18.3h3.2l0.5,14.2l7.5-14.2h2.6l1.8,14.2l6.1-14.2
			H69.9z"/>
		<path class="st9" d="M79,33.3c-2.5,0-4.5-0.6-6-1.8c-1.4-1.2-2.2-2.9-2.2-5.2c0-3.4,1.1-6.2,3.2-8.6c2.1-2.4,4.7-3.6,7.9-3.6
			c2.1,0,3.7,0.5,4.8,1.5s1.7,2.5,1.7,4.4c0,0.3,0,0.8-0.1,1.6S88,23.1,87.8,24H74.3c-0.1,0.3-0.1,0.6-0.1,0.9c0,0.3,0,0.6,0,0.9
			c0,1.5,0.5,2.8,1.4,3.6s2.3,1.3,4,1.3c1.2,0,2.4-0.2,3.7-0.7c1.3-0.5,2.3-1,3.2-1.6h0.2l-0.7,3.3c-0.5,0.2-1,0.4-1.5,0.5
			c-0.4,0.2-1,0.3-1.7,0.5c-0.7,0.2-1.3,0.3-1.8,0.4S79.8,33.3,79,33.3z M85.2,21.7c0.1-0.3,0.1-0.6,0.1-0.8c0-0.2,0-0.5,0-0.7
			c0-1.2-0.3-2.1-1-2.7c-0.6-0.7-1.7-1-3.1-1c-1.6,0-2.9,0.5-4.1,1.4c-1.2,1-2,2.2-2.4,3.8H85.2z"/>
		<path class="st9" d="M105.1,17.8H105c-0.4-0.1-0.8-0.2-1.2-0.2c-0.4,0-0.8-0.1-1.4-0.1c-1,0-2,0.2-3.1,0.7c-1,0.5-2,1-2.9,1.7
			l-3,13h-3.1l4.2-18.3h3.1L97,17.3c1.5-1,2.7-1.7,3.7-2.1c1-0.4,2-0.6,2.9-0.6c0.5,0,0.9,0,1.2,0s0.6,0.1,1,0.2L105.1,17.8z"/>
		<path class="st9" d="M113.4,33.3c-2.5,0-4.5-0.6-6-1.8c-1.4-1.2-2.2-2.9-2.2-5.2c0-3.4,1.1-6.2,3.2-8.6c2.1-2.4,4.7-3.6,7.9-3.6
			c2.1,0,3.7,0.5,4.8,1.5s1.7,2.5,1.7,4.4c0,0.3,0,0.8-0.1,1.6s-0.2,1.5-0.5,2.5h-13.5c-0.1,0.3-0.1,0.6-0.1,0.9s0,0.6,0,0.9
			c0,1.5,0.5,2.8,1.4,3.6s2.3,1.3,4,1.3c1.2,0,2.4-0.2,3.7-0.7c1.3-0.5,2.3-1,3.2-1.6h0.2l-0.7,3.3c-0.5,0.2-1,0.4-1.5,0.5
			c-0.4,0.2-1,0.3-1.7,0.5c-0.7,0.2-1.3,0.3-1.8,0.4S114.1,33.3,113.4,33.3z M119.5,21.7c0.1-0.3,0.1-0.6,0.1-0.8c0-0.2,0-0.5,0-0.7
			c0-1.2-0.3-2.1-1-2.7c-0.6-0.7-1.7-1-3.1-1c-1.6,0-2.9,0.5-4.1,1.4c-1.2,1-2,2.2-2.4,3.8H119.5z"/>
		<path class="st9" d="M145.4,7.4l-5.9,25.5h-3.1l0.4-1.9c-1.4,1-2.5,1.6-3.4,1.9c-0.8,0.3-1.8,0.5-2.8,0.5c-1.7,0-3.1-0.5-4.1-1.6
			s-1.5-2.7-1.5-4.8c0-1.8,0.3-3.4,0.8-5c0.5-1.6,1.3-2.9,2.2-4.1c0.9-1.2,2-2.1,3.3-2.8c1.3-0.7,2.6-1,4-1c1,0,1.9,0.1,2.7,0.3
			c0.8,0.2,1.6,0.5,2.3,0.9l1.8-7.9H145.4z M139.9,17.9c-0.7-0.4-1.5-0.7-2.2-0.8c-0.7-0.2-1.5-0.3-2.3-0.3c-1.1,0-2.2,0.3-3,0.8
			c-0.9,0.5-1.7,1.3-2.3,2.2c-0.6,0.9-1,1.9-1.3,3.1c-0.3,1.2-0.5,2.4-0.5,3.5c0,1.3,0.3,2.4,0.9,3.1c0.6,0.7,1.5,1.1,2.8,1.1
			c0.9,0,1.9-0.2,2.8-0.7c1-0.5,1.8-1,2.6-1.5L139.9,17.9z"/>
		<path class="st9" d="M176,20.4c0,1.8-0.3,3.5-0.8,5.1c-0.6,1.6-1.3,3-2.2,4.1c-1,1.2-2.1,2.1-3.3,2.8c-1.2,0.7-2.5,1-4,1
			c-1,0-1.9-0.1-2.7-0.4c-0.8-0.3-1.6-0.6-2.3-1l-0.4,0.9h-2.9l5.9-25.5h3.1l-2.1,9.1c1-0.7,2-1.3,3-1.7c1-0.5,2.1-0.7,3.3-0.7
			c1.8,0,3.1,0.6,4.1,1.7C175.6,16.8,176,18.4,176,20.4z M171,27.7c0.6-1,1.1-2,1.4-3.1c0.3-1.1,0.5-2.4,0.5-3.6
			c0-1.3-0.3-2.3-0.9-3c-0.6-0.7-1.5-1.1-2.7-1.1c-0.9,0-1.8,0.2-2.8,0.7c-1,0.4-1.9,1-2.7,1.5l-2.4,10.5c0.7,0.4,1.4,0.7,2,0.9
			c0.7,0.2,1.5,0.3,2.4,0.3c1.1,0,2.2-0.3,3.1-0.8C169.6,29.4,170.4,28.6,171,27.7z"/>
		<path class="st9" d="M181.7,39.7h-3.4l5.3-7.8l-3.3-17.2h3.2l2.6,13.6l8.8-13.6h3.4L181.7,39.7z"/>
	</g>
</g>
</svg>
